<?xml version="1.0" encoding="utf-8"?>
<!-- Generator: Adobe Illustrator 16.0.3, SVG Export Plug-In . SVG Version: 6.00 Build 0)  -->
<!DOCTYPE svg PUBLIC "-//W3C//DTD SVG 1.1//EN" "http://www.w3.org/Graphics/SVG/1.1/DTD/svg11.dtd">
<svg version="1.1" id="Calque_1" xmlns="http://www.w3.org/2000/svg" xmlns:xlink="http://www.w3.org/1999/xlink" x="0px" y="0px"
	 width="62px" height="45px" viewBox="0 0 62 45" enable-background="new 0 0 62 45" xml:space="preserve">
<g>
	<path fill="#CC3A00" d="M43.779,1.309c-1.372-0.446-2.787-0.679-4.213-0.84c-1.43-0.161-2.865-0.23-4.298-0.04
		c-0.891,0.119-1.676,0.465-2.339,1.094c-0.504,0.479-0.925,1.025-1.367,1.556c-0.521,0.625-1.118,1.192-1.615,1.828
		c-0.801,1.024-1.963,1.482-2.995,2.148c-0.169,0.109-0.278,0.06-0.328-0.165c-0.219-0.968-0.607-1.866-1.123-2.714
		C25.361,3.943,25.22,3.729,25,3.565c-0.354-0.264-0.499-0.216-0.674,0.184c-0.3,0.681-0.256,1.352,0.008,2.021
		c0.089,0.227,0.024,0.347-0.19,0.414c-0.88,0.276-1.756,0.566-2.661,0.756c-0.089,0.019-0.161,0.024-0.216-0.074
		c-0.135-0.245-0.35-0.469-0.407-0.729c-0.121-0.553-0.556-0.802-0.935-1.113c-0.154-0.127-0.265-0.113-0.344,0.114
		c-0.189,0.537-0.208,1.095-0.233,1.65c-0.034,0.723,0.227,1.386,0.48,2.045c0.081,0.21,0.106,0.331-0.165,0.39
		c-0.792,0.171-1.589,0.234-2.398,0.217c-1.858-0.04-3.44-0.862-5.01-1.733c-0.839-0.466-1.629-1.013-2.486-1.451
		C9.129,5.93,8.539,5.829,7.961,6.37C7.714,6.601,7.426,6.785,7.156,6.99c-1.732,1.313-3.341,2.773-4.958,4.223
		c-0.084,0.075-0.236,0.127-0.17,0.285c0.064,0.156,0.211,0.211,0.362,0.192c0.253-0.033,0.502-0.091,0.752-0.143
		c1.223-0.254,2.351,0.017,3.371,0.688c0.605,0.398,0.925,1.024,1.099,1.735c0.12,0.492,0.07,0.559,0.569,0.296
		c1.138-0.6,2.253-0.371,3.315,0.173c0.718,0.368,1.032,1.061,1.144,1.843c0.02,0.134,0.026,0.281,0.181,0.331
		c0.153,0.048,0.237-0.07,0.336-0.163c0.339-0.319,0.704-0.56,1.196-0.631c0.81-0.119,1.373,0.288,1.912,0.779
		c0.378,0.344,0.636,0.765,0.688,1.286c0.015,0.147,0.003,0.31,0.175,0.365c0.158,0.052,0.242-0.093,0.332-0.183
		c0.557-0.553,1.224-0.906,1.981-1.083c1.247-0.29,2.433-0.019,3.516,0.573c1.107,0.605,2.05,1.455,2.958,2.332
		c0.287,0.277,0.544,0.583,0.814,0.877c0.102,0.111,0.215,0.136,0.363,0.091c0.182-0.054,0.104-0.188,0.118-0.298
		c0.104-0.769,0.101-1.547,0.247-2.313c0.202-1.059,0.475-2.08,1.168-2.941c0.325-0.404,0.628-0.817,1.138-1.029
		c0.569-0.237,1.146-0.289,1.746-0.196c0.313,0.048,0.394-0.041,0.407-0.344c0.018-0.387,0.054-0.777,0.24-1.128
		c0.591-1.117,2.065-1.762,3.284-1.438c0.112,0.03,0.218,0.05,0.312-0.027c0.104-0.088,0.061-0.193,0.024-0.301
		c-0.139-0.402-0.156-0.827-0.08-1.229c0.198-1.036,0.871-1.74,1.746-2.261c0.49-0.292,0.996-0.56,1.605-0.532
		c0.214,0.01,0.32-0.163,0.164-0.349c-0.187-0.223-0.234-0.475-0.251-0.745c-0.057-0.482-0.011-0.964,0.196-1.394
		c0.377-0.782,0.956-1.392,1.719-1.832c0.372-0.214,0.772-0.357,1.163-0.519c0.531-0.222,1.079-0.457,1.686-0.276
		c0.146,0.043,0.256-0.077,0.283-0.173C44.046,1.386,43.9,1.347,43.779,1.309"/>
	<path opacity="0.35" fill="#CC3A00" d="M61.499,18.165c-0.56-0.543-1.192-0.994-1.846-1.412c-0.656-0.419-1.336-0.795-2.078-1.044
		c-0.461-0.155-0.925-0.174-1.396-0.026c-0.359,0.112-0.694,0.277-1.035,0.43c-0.402,0.18-0.828,0.313-1.22,0.503
		c-0.633,0.307-1.307,0.252-1.967,0.329c-0.108,0.013-0.149-0.037-0.12-0.158c0.125-0.522,0.15-1.051,0.102-1.586
		c-0.013-0.147-0.03-0.284-0.099-0.417c-0.109-0.212-0.19-0.224-0.371-0.071c-0.308,0.259-0.447,0.596-0.479,0.984
		c-0.011,0.131-0.071,0.174-0.191,0.155c-0.493-0.076-0.988-0.144-1.473-0.267c-0.048-0.012-0.084-0.027-0.087-0.087
		c-0.008-0.151-0.059-0.311-0.024-0.451c0.073-0.298-0.079-0.522-0.188-0.764c-0.044-0.098-0.102-0.118-0.194-0.026
		c-0.22,0.215-0.362,0.482-0.507,0.746c-0.189,0.343-0.22,0.728-0.255,1.108c-0.011,0.121-0.027,0.186-0.173,0.15
		c-0.425-0.105-0.828-0.265-1.216-0.466c-0.893-0.462-1.465-1.239-2.02-2.037c-0.297-0.426-0.55-0.881-0.861-1.298
		c-0.232-0.311-0.495-0.501-0.905-0.376c-0.175,0.053-0.359,0.074-0.539,0.109c-1.154,0.225-2.284,0.55-3.415,0.869
		c-0.059,0.017-0.145,0.005-0.15,0.098c-0.006,0.091,0.052,0.153,0.13,0.179c0.131,0.044,0.266,0.076,0.4,0.11
		c0.655,0.168,1.138,0.569,1.473,1.138c0.199,0.337,0.205,0.718,0.12,1.104c-0.059,0.268-0.1,0.289,0.206,0.28
		c0.696-0.02,1.183,0.357,1.569,0.875c0.261,0.35,0.249,0.761,0.117,1.168c-0.023,0.07-0.055,0.143,0.009,0.204
		c0.063,0.06,0.132,0.023,0.203,0.001c0.241-0.074,0.475-0.104,0.731-0.021c0.421,0.136,0.598,0.468,0.743,0.834
		c0.102,0.258,0.126,0.523,0.027,0.789c-0.028,0.075-0.072,0.151-0.002,0.219c0.064,0.063,0.14,0.013,0.205-0.009
		c0.402-0.136,0.811-0.148,1.22-0.054c0.675,0.157,1.186,0.571,1.571,1.117c0.393,0.558,0.649,1.195,0.88,1.838
		c0.073,0.203,0.125,0.413,0.186,0.62c0.023,0.078,0.072,0.117,0.155,0.131c0.102,0.018,0.095-0.067,0.129-0.117
		c0.233-0.349,0.417-0.728,0.671-1.065c0.35-0.466,0.727-0.897,1.269-1.15c0.254-0.119,0.5-0.247,0.798-0.229
		c0.333,0.021,0.625,0.133,0.895,0.321c0.14,0.099,0.201,0.074,0.28-0.07c0.101-0.183,0.211-0.364,0.386-0.491
		c0.553-0.401,1.423-0.363,1.938,0.085c0.047,0.041,0.094,0.077,0.158,0.061c0.072-0.018,0.076-0.079,0.083-0.14
		c0.028-0.229,0.121-0.439,0.254-0.616c0.343-0.456,0.838-0.637,1.388-0.682c0.308-0.025,0.617-0.035,0.906,0.125
		c0.102,0.056,0.194-0.003,0.163-0.13c-0.038-0.153,0-0.286,0.056-0.422c0.087-0.248,0.225-0.471,0.427-0.63
		c0.37-0.29,0.796-0.448,1.272-0.48c0.232-0.015,0.46,0.011,0.688,0.025c0.311,0.019,0.633,0.036,0.885,0.269
		c0.061,0.056,0.143,0.023,0.178-0.017C61.61,18.266,61.548,18.212,61.499,18.165"/>
	<path opacity="0.65" fill="#CC3A00" d="M26.646,28.432c-1.003-0.049-1.997,0.053-2.984,0.206c-0.991,0.153-1.968,0.369-2.896,0.758
		c-0.577,0.243-1.042,0.619-1.372,1.163c-0.252,0.415-0.435,0.858-0.635,1.296c-0.235,0.515-0.533,1.005-0.751,1.523
		c-0.351,0.834-1.048,1.355-1.62,1.991c-0.093,0.104-0.176,0.091-0.25-0.051c-0.324-0.61-0.749-1.143-1.25-1.619
		c-0.138-0.13-0.271-0.249-0.45-0.319c-0.286-0.113-0.374-0.054-0.419,0.247c-0.077,0.512,0.075,0.955,0.375,1.357
		c0.102,0.136,0.08,0.229-0.052,0.313c-0.541,0.346-1.077,0.701-1.65,0.995c-0.057,0.029-0.104,0.045-0.158-0.011
		c-0.136-0.139-0.321-0.25-0.407-0.415c-0.183-0.35-0.521-0.438-0.832-0.578c-0.126-0.057-0.199-0.027-0.21,0.14
		c-0.029,0.396,0.061,0.773,0.145,1.151c0.109,0.492,0.406,0.89,0.696,1.287c0.092,0.126,0.132,0.203-0.04,0.292
		c-0.501,0.26-1.025,0.448-1.572,0.584c-1.256,0.313-2.47,0.049-3.684-0.25c-0.649-0.16-1.28-0.383-1.936-0.521
		C4.205,37.869,3.79,37.908,3.5,38.377c-0.124,0.201-0.284,0.377-0.428,0.563c-0.924,1.199-1.739,2.474-2.56,3.744
		c-0.043,0.066-0.136,0.129-0.062,0.223C0.522,43,0.631,43.011,0.729,42.97c0.164-0.069,0.321-0.153,0.479-0.233
		c0.775-0.395,1.583-0.418,2.391-0.153c0.479,0.157,0.809,0.52,1.055,0.965c0.17,0.309,0.149,0.363,0.437,0.095
		c0.655-0.61,1.446-0.661,2.259-0.489c0.55,0.116,0.888,0.524,1.106,1.029c0.038,0.086,0.069,0.184,0.182,0.189
		c0.112,0.005,0.146-0.09,0.196-0.171c0.17-0.276,0.371-0.505,0.688-0.643c0.523-0.228,0.976-0.057,1.427,0.175
		c0.317,0.162,0.567,0.397,0.697,0.739c0.037,0.096,0.059,0.208,0.184,0.213c0.115,0.006,0.146-0.106,0.19-0.183
		c0.273-0.474,0.657-0.833,1.133-1.09c0.785-0.423,1.632-0.457,2.468-0.257c0.854,0.205,1.644,0.603,2.414,1.027
		c0.243,0.134,0.472,0.292,0.707,0.441c0.089,0.056,0.169,0.052,0.261-0.005c0.113-0.069,0.035-0.146,0.025-0.222
		c-0.07-0.536-0.215-1.058-0.257-1.6c-0.058-0.748-0.061-1.484,0.248-2.189c0.145-0.331,0.273-0.664,0.577-0.899
		c0.339-0.264,0.717-0.404,1.137-0.452c0.219-0.024,0.257-0.099,0.211-0.305c-0.058-0.263-0.106-0.532-0.045-0.802
		c0.193-0.858,1.066-1.562,1.944-1.566c0.081,0,0.156-0.006,0.205-0.075c0.055-0.078,0.006-0.141-0.039-0.207
		c-0.167-0.245-0.256-0.527-0.278-0.812c-0.057-0.732,0.268-1.329,0.76-1.839c0.276-0.286,0.566-0.558,0.981-0.651
		c0.146-0.032,0.185-0.168,0.046-0.264c-0.167-0.116-0.244-0.276-0.305-0.455c-0.126-0.313-0.184-0.646-0.123-0.972
		c0.11-0.595,0.388-1.11,0.82-1.545c0.211-0.212,0.454-0.381,0.687-0.562c0.316-0.246,0.642-0.503,1.083-0.493
		c0.106,0.002,0.158-0.099,0.158-0.167C26.84,28.435,26.735,28.436,26.646,28.432"/>
</g>
<g>
	<path opacity="0.35" fill="#CC3A00" d="M82.501,18.363c0.56-0.543,1.192-0.994,1.846-1.412c0.656-0.419,1.336-0.795,2.078-1.044
		c0.461-0.155,0.925-0.174,1.396-0.026c0.359,0.112,0.694,0.277,1.035,0.43c0.402,0.18,0.828,0.313,1.22,0.503
		c0.633,0.307,1.307,0.252,1.967,0.329c0.108,0.013,0.149-0.037,0.12-0.158c-0.125-0.522-0.15-1.051-0.102-1.586
		c0.013-0.147,0.03-0.284,0.099-0.417c0.109-0.212,0.19-0.224,0.371-0.071c0.308,0.259,0.447,0.596,0.479,0.984
		c0.011,0.131,0.071,0.174,0.191,0.155c0.493-0.076,0.988-0.144,1.473-0.267c0.048-0.012,0.084-0.027,0.087-0.087
		c0.008-0.151,0.059-0.311,0.024-0.451c-0.073-0.297,0.079-0.522,0.188-0.763c0.044-0.098,0.102-0.118,0.194-0.026
		c0.22,0.215,0.362,0.482,0.507,0.746c0.189,0.343,0.22,0.728,0.255,1.108c0.011,0.121,0.027,0.186,0.173,0.15
		c0.425-0.105,0.828-0.265,1.216-0.466c0.893-0.462,1.465-1.239,2.02-2.037c0.297-0.426,0.55-0.881,0.861-1.298
		c0.232-0.311,0.495-0.501,0.905-0.376c0.175,0.053,0.359,0.074,0.539,0.109c1.154,0.225,2.284,0.55,3.415,0.869
		c0.059,0.017,0.145,0.005,0.15,0.098c0.006,0.091-0.052,0.153-0.13,0.18c-0.131,0.044-0.266,0.076-0.4,0.11
		c-0.655,0.168-1.138,0.569-1.473,1.138c-0.199,0.337-0.205,0.718-0.12,1.104c0.059,0.268,0.1,0.288-0.206,0.28
		c-0.696-0.02-1.183,0.357-1.569,0.875c-0.261,0.35-0.249,0.762-0.117,1.168c0.023,0.07,0.055,0.143-0.009,0.204
		c-0.063,0.06-0.132,0.023-0.203,0.001c-0.241-0.074-0.475-0.104-0.731-0.022c-0.422,0.136-0.598,0.468-0.743,0.834
		c-0.102,0.258-0.126,0.523-0.027,0.789c0.028,0.075,0.072,0.151,0.002,0.219c-0.064,0.063-0.14,0.013-0.205-0.009
		c-0.402-0.136-0.811-0.148-1.22-0.054c-0.675,0.157-1.186,0.571-1.571,1.117c-0.393,0.558-0.649,1.195-0.88,1.838
		c-0.073,0.203-0.125,0.413-0.186,0.62c-0.023,0.078-0.072,0.117-0.155,0.131c-0.102,0.018-0.095-0.067-0.129-0.117
		c-0.233-0.349-0.417-0.728-0.671-1.065c-0.35-0.466-0.727-0.897-1.269-1.15c-0.254-0.119-0.5-0.247-0.798-0.229
		c-0.333,0.021-0.625,0.133-0.895,0.321c-0.14,0.098-0.201,0.074-0.28-0.07c-0.101-0.183-0.211-0.364-0.386-0.491
		c-0.553-0.401-1.423-0.363-1.938,0.085c-0.047,0.041-0.094,0.077-0.158,0.061c-0.072-0.018-0.076-0.079-0.083-0.14
		c-0.028-0.229-0.121-0.439-0.254-0.616c-0.343-0.456-0.838-0.637-1.388-0.682c-0.308-0.025-0.617-0.035-0.906,0.125
		c-0.102,0.056-0.194-0.003-0.163-0.13c0.038-0.153,0-0.286-0.056-0.422c-0.087-0.248-0.225-0.471-0.427-0.63
		c-0.37-0.29-0.796-0.448-1.272-0.48c-0.232-0.015-0.46,0.011-0.688,0.025c-0.311,0.019-0.633,0.036-0.885,0.269
		c-0.061,0.055-0.143,0.023-0.178-0.017C82.39,18.465,82.452,18.411,82.501,18.363"/>
	<path opacity="0.65" fill="#CC3A00" d="M108.354,0.13c1.003-0.049,1.997,0.053,2.984,0.206c0.991,0.153,1.968,0.369,2.896,0.758
		c0.577,0.243,1.042,0.619,1.372,1.163c0.252,0.415,0.435,0.858,0.635,1.296c0.235,0.515,0.533,1.005,0.751,1.523
		c0.351,0.834,1.048,1.355,1.62,1.991c0.093,0.104,0.176,0.091,0.25-0.051c0.324-0.61,0.749-1.144,1.25-1.619
		c0.138-0.13,0.271-0.249,0.45-0.319c0.286-0.113,0.374-0.054,0.419,0.247c0.077,0.512-0.075,0.955-0.375,1.357
		c-0.102,0.136-0.08,0.229,0.052,0.313c0.541,0.346,1.077,0.701,1.65,0.995c0.057,0.029,0.104,0.045,0.158-0.011
		c0.136-0.139,0.321-0.251,0.407-0.415c0.183-0.349,0.521-0.437,0.832-0.577c0.126-0.057,0.199-0.027,0.21,0.14
		c0.029,0.396-0.061,0.773-0.145,1.151c-0.109,0.492-0.406,0.89-0.696,1.287c-0.092,0.126-0.132,0.203,0.04,0.292
		c0.501,0.26,1.025,0.448,1.572,0.584c1.256,0.313,2.47,0.049,3.684-0.25c0.649-0.159,1.28-0.383,1.936-0.521
		c0.489-0.103,0.904-0.063,1.193,0.406c0.124,0.201,0.284,0.377,0.428,0.563c0.924,1.199,1.739,2.474,2.56,3.744
		c0.043,0.066,0.136,0.129,0.062,0.223c-0.072,0.093-0.18,0.103-0.278,0.063c-0.164-0.068-0.321-0.153-0.479-0.234
		c-0.775-0.394-1.583-0.418-2.391-0.153c-0.479,0.157-0.809,0.52-1.055,0.965c-0.17,0.309-0.149,0.363-0.437,0.095
		c-0.655-0.61-1.446-0.661-2.259-0.489c-0.55,0.116-0.888,0.524-1.106,1.029c-0.038,0.086-0.069,0.184-0.182,0.189
		c-0.112,0.005-0.146-0.09-0.196-0.171c-0.17-0.276-0.371-0.505-0.688-0.643c-0.523-0.228-0.976-0.057-1.427,0.175
		c-0.317,0.162-0.567,0.397-0.697,0.739c-0.037,0.096-0.059,0.208-0.184,0.213c-0.115,0.006-0.146-0.106-0.19-0.184
		c-0.273-0.473-0.657-0.832-1.133-1.089c-0.785-0.423-1.632-0.457-2.468-0.257c-0.854,0.205-1.644,0.603-2.414,1.027
		c-0.243,0.134-0.472,0.292-0.707,0.441c-0.089,0.056-0.169,0.052-0.261-0.005c-0.113-0.07-0.035-0.146-0.025-0.222
		c0.07-0.536,0.215-1.058,0.257-1.6c0.058-0.748,0.061-1.484-0.248-2.19c-0.145-0.331-0.273-0.664-0.577-0.899
		c-0.339-0.264-0.717-0.404-1.137-0.452c-0.219-0.024-0.257-0.099-0.211-0.305c0.058-0.263,0.106-0.532,0.045-0.802
		c-0.194-0.859-1.066-1.562-1.944-1.566c-0.081,0-0.156-0.006-0.205-0.075c-0.055-0.078-0.006-0.141,0.039-0.207
		c0.167-0.245,0.256-0.527,0.278-0.812c0.057-0.733-0.268-1.329-0.76-1.839c-0.276-0.286-0.566-0.558-0.981-0.651
		c-0.146-0.032-0.185-0.168-0.046-0.264c0.167-0.116,0.244-0.276,0.305-0.455c0.126-0.313,0.184-0.646,0.123-0.972
		c-0.11-0.595-0.388-1.11-0.82-1.545c-0.211-0.212-0.454-0.381-0.687-0.562c-0.316-0.246-0.642-0.503-1.083-0.493
		c-0.106,0.002-0.158-0.099-0.158-0.167C108.16,0.134,108.265,0.135,108.354,0.13"/>
</g>
<g>
	<path fill="#E7B949" d="M57.979,70.098c-1.829-0.594-3.715-0.904-5.617-1.119c-1.906-0.215-3.82-0.308-5.731-0.054
		c-1.188,0.158-2.235,0.62-3.118,1.459c-0.672,0.639-1.233,1.367-1.822,2.075c-0.694,0.833-1.491,1.59-2.153,2.437
		c-1.068,1.366-2.617,1.977-3.993,2.864c-0.225,0.145-0.371,0.08-0.438-0.219c-0.292-1.291-0.809-2.488-1.497-3.62
		c-0.188-0.31-0.376-0.595-0.67-0.815c-0.472-0.352-0.664-0.288-0.899,0.246c-0.4,0.907-0.341,1.803,0.011,2.695
		c0.119,0.303,0.032,0.462-0.253,0.552c-1.174,0.368-2.342,0.754-3.548,1.008c-0.119,0.025-0.214,0.032-0.288-0.1
		c-0.181-0.325-0.467-0.625-0.543-0.971c-0.162-0.737-0.742-1.069-1.246-1.484c-0.205-0.169-0.353-0.15-0.459,0.152
		c-0.252,0.716-0.277,1.46-0.311,2.2c-0.046,0.964,0.303,1.849,0.64,2.727c0.107,0.28,0.142,0.441-0.22,0.52
		c-1.055,0.229-2.118,0.313-3.197,0.29c-2.478-0.053-4.587-1.15-6.68-2.312c-1.12-0.621-2.172-1.351-3.315-1.935
		c-0.852-0.436-1.639-0.57-2.409,0.151c-0.329,0.308-0.714,0.554-1.073,0.826c-2.309,1.751-4.455,3.698-6.61,5.631
		c-0.112,0.1-0.315,0.169-0.227,0.38c0.086,0.208,0.282,0.282,0.483,0.255c0.338-0.044,0.67-0.121,1.003-0.19
		c1.63-0.339,3.135,0.023,4.494,0.918c0.807,0.531,1.233,1.366,1.465,2.313c0.16,0.656,0.093,0.746,0.759,0.395
		c1.518-0.799,3.004-0.494,4.42,0.231c0.958,0.49,1.376,1.415,1.526,2.457c0.026,0.179,0.035,0.375,0.241,0.44
		c0.205,0.065,0.316-0.093,0.449-0.217c0.452-0.425,0.938-0.747,1.594-0.842c1.08-0.158,1.831,0.384,2.549,1.04
		c0.504,0.459,0.848,1.02,0.917,1.715c0.02,0.196,0.005,0.413,0.233,0.487c0.21,0.069,0.322-0.124,0.443-0.243
		c0.742-0.738,1.632-1.208,2.642-1.444c1.663-0.387,3.244-0.024,4.688,0.764c1.476,0.808,2.734,1.94,3.943,3.109
		c0.382,0.369,0.726,0.778,1.085,1.17c0.136,0.148,0.287,0.181,0.484,0.122c0.243-0.072,0.138-0.251,0.158-0.398
		c0.139-1.025,0.134-2.063,0.329-3.085c0.269-1.411,0.633-2.773,1.557-3.921c0.434-0.539,0.837-1.089,1.517-1.372
		c0.76-0.316,1.527-0.386,2.328-0.262c0.417,0.065,0.525-0.054,0.543-0.458c0.024-0.516,0.072-1.036,0.32-1.504
		c0.789-1.489,2.754-2.35,4.378-1.917c0.149,0.04,0.291,0.067,0.416-0.037c0.14-0.117,0.082-0.257,0.032-0.401
		c-0.186-0.535-0.208-1.103-0.107-1.639c0.264-1.382,1.162-2.32,2.328-3.015c0.654-0.39,1.327-0.747,2.14-0.709
		c0.286,0.013,0.427-0.218,0.219-0.465c-0.25-0.297-0.312-0.633-0.335-0.994c-0.076-0.642-0.015-1.286,0.261-1.858
		c0.502-1.043,1.274-1.856,2.292-2.443c0.497-0.286,1.03-0.476,1.55-0.692c0.708-0.296,1.438-0.608,2.248-0.368
		c0.195,0.057,0.342-0.103,0.377-0.23C58.335,70.202,58.14,70.15,57.979,70.098"/>
	<path opacity="0.35" fill="#E7B949" d="M44.871,95.789c-1.038,0.071-2.048,0.295-3.046,0.571c-1,0.277-1.98,0.616-2.888,1.129
		c-0.564,0.319-0.997,0.762-1.271,1.361c-0.209,0.457-0.343,0.936-0.497,1.41c-0.18,0.559-0.428,1.099-0.589,1.658
		c-0.26,0.901-0.915,1.52-1.427,2.244c-0.083,0.118-0.17,0.114-0.264-0.022c-0.406-0.589-0.908-1.086-1.481-1.515
		c-0.157-0.118-0.309-0.223-0.501-0.274c-0.308-0.082-0.392-0.011-0.402,0.305c-0.018,0.536,0.192,0.974,0.549,1.351
		c0.121,0.128,0.109,0.226-0.016,0.328c-0.515,0.422-1.023,0.852-1.578,1.222c-0.055,0.037-0.101,0.06-0.164,0.008
		c-0.157-0.127-0.361-0.219-0.469-0.378c-0.23-0.337-0.588-0.387-0.925-0.494c-0.137-0.043-0.208-0.004-0.2,0.169
		c0.018,0.41,0.155,0.789,0.288,1.167c0.171,0.494,0.525,0.867,0.871,1.24c0.111,0.119,0.16,0.193-0.005,0.305
		c-0.484,0.328-1,0.584-1.546,0.791c-1.255,0.473-2.535,0.348-3.82,0.187c-0.688-0.086-1.363-0.24-2.055-0.302
		c-0.516-0.047-0.938,0.044-1.179,0.562c-0.103,0.221-0.247,0.422-0.372,0.631c-0.806,1.345-1.491,2.755-2.183,4.161
		c-0.036,0.073-0.124,0.148-0.037,0.237c0.085,0.087,0.198,0.084,0.294,0.031c0.161-0.09,0.312-0.196,0.465-0.298
		c0.75-0.499,1.579-0.621,2.441-0.445c0.512,0.104,0.895,0.437,1.202,0.866c0.213,0.297,0.197,0.355,0.46,0.045
		c0.601-0.708,1.409-0.854,2.266-0.776c0.58,0.053,0.977,0.433,1.262,0.926c0.049,0.085,0.093,0.182,0.21,0.173
		c0.116-0.009,0.14-0.11,0.182-0.2c0.141-0.305,0.32-0.564,0.63-0.744c0.51-0.297,0.997-0.177,1.489,0.007
		c0.346,0.129,0.632,0.341,0.806,0.676c0.05,0.094,0.086,0.206,0.215,0.197c0.12-0.008,0.137-0.127,0.173-0.211
		c0.224-0.52,0.576-0.936,1.035-1.258c0.757-0.529,1.624-0.667,2.508-0.562c0.904,0.107,1.764,0.422,2.607,0.765
		c0.266,0.108,0.521,0.244,0.781,0.368c0.098,0.047,0.181,0.033,0.268-0.036c0.107-0.085,0.019-0.154-0.001-0.232
		c-0.137-0.542-0.349-1.063-0.458-1.615c-0.15-0.763-0.242-1.521-0.009-2.283c0.109-0.358,0.201-0.715,0.485-0.995
		c0.317-0.312,0.689-0.502,1.116-0.602c0.223-0.051,0.252-0.133,0.18-0.339c-0.092-0.264-0.173-0.535-0.143-0.82
		c0.095-0.907,0.908-1.735,1.812-1.845c0.083-0.01,0.16-0.025,0.201-0.103c0.047-0.086-0.011-0.146-0.064-0.208
		c-0.201-0.231-0.327-0.512-0.384-0.801c-0.146-0.747,0.115-1.399,0.561-1.984c0.25-0.327,0.516-0.643,0.931-0.788
		c0.146-0.051,0.17-0.196,0.016-0.278c-0.185-0.099-0.284-0.255-0.369-0.431c-0.167-0.307-0.267-0.643-0.244-0.985
		c0.042-0.625,0.265-1.189,0.658-1.689c0.191-0.244,0.421-0.447,0.639-0.66c0.295-0.292,0.599-0.596,1.054-0.638
		c0.109-0.011,0.151-0.121,0.143-0.192C45.07,95.77,44.962,95.783,44.871,95.789"/>
	<path opacity="0.65" fill="#E7B949" d="M79.748,166.751c-0.734-1.12-1.624-2.111-2.563-3.057c-0.942-0.948-1.941-1.832-3.089-2.527
		c-0.714-0.432-1.484-0.638-2.33-0.567c-0.644,0.054-1.266,0.205-1.895,0.333c-0.74,0.15-1.503,0.213-2.231,0.385
		c-1.175,0.276-2.283-0.067-3.417-0.185c-0.186-0.019-0.236-0.118-0.142-0.31c0.404-0.828,0.646-1.704,0.765-2.618
		c0.033-0.25,0.056-0.487-0.009-0.735c-0.103-0.397-0.235-0.446-0.595-0.259c-0.613,0.319-0.971,0.831-1.169,1.469
		c-0.067,0.216-0.184,0.265-0.378,0.189c-0.797-0.312-1.601-0.611-2.367-0.999c-0.076-0.039-0.13-0.076-0.113-0.179
		c0.044-0.256,0.019-0.543,0.128-0.764c0.233-0.471,0.063-0.904-0.03-1.349c-0.038-0.182-0.126-0.236-0.315-0.117
		c-0.45,0.279-0.787,0.672-1.128,1.059c-0.445,0.504-0.642,1.136-0.841,1.76c-0.064,0.199-0.115,0.301-0.346,0.186
		c-0.673-0.335-1.287-0.753-1.863-1.236c-1.322-1.109-1.99-2.625-2.621-4.167c-0.337-0.825-0.591-1.681-0.958-2.496
		c-0.272-0.607-0.641-1.024-1.374-0.968c-0.313,0.023-0.629-0.011-0.943-0.019c-2.018-0.055-4.032,0.066-6.045,0.177
		c-0.104,0.005-0.245-0.045-0.289,0.108c-0.044,0.15,0.03,0.276,0.151,0.35c0.203,0.123,0.417,0.226,0.628,0.333
		c1.034,0.526,1.693,1.379,2.041,2.458c0.207,0.64,0.075,1.28-0.212,1.895c-0.199,0.426-0.274,0.446,0.24,0.545
		c1.173,0.228,1.847,1.041,2.3,2.052c0.306,0.684,0.131,1.368-0.242,2c-0.064,0.109-0.145,0.219-0.062,0.345
		c0.083,0.124,0.212,0.087,0.339,0.078c0.431-0.034,0.835,0.003,1.232,0.237c0.655,0.385,0.827,1.007,0.932,1.676
		c0.074,0.469,0.016,0.924-0.25,1.331c-0.075,0.115-0.178,0.226-0.086,0.366c0.084,0.129,0.229,0.074,0.347,0.061
		c0.725-0.077,1.413,0.055,2.064,0.368c1.072,0.515,1.772,1.4,2.213,2.458c0.45,1.082,0.639,2.246,0.787,3.408
		c0.046,0.367,0.055,0.739,0.08,1.108c0.009,0.14,0.077,0.223,0.209,0.277c0.164,0.067,0.185-0.077,0.26-0.147
		c0.522-0.496,0.972-1.062,1.523-1.532c0.761-0.649,1.553-1.23,2.555-1.451c0.47-0.103,0.929-0.226,1.422-0.083
		c0.55,0.159,0.998,0.456,1.378,0.872c0.199,0.217,0.309,0.199,0.495-0.012c0.238-0.269,0.49-0.531,0.83-0.678
		c1.078-0.465,2.52-0.076,3.213,0.868c0.064,0.087,0.129,0.164,0.242,0.162c0.126-0.002,0.156-0.104,0.192-0.204
		c0.132-0.372,0.367-0.69,0.656-0.937c0.746-0.635,1.642-0.753,2.579-0.623c0.525,0.073,1.046,0.173,1.472,0.547
		c0.149,0.132,0.327,0.068,0.322-0.157c-0.006-0.27,0.106-0.479,0.25-0.686c0.239-0.382,0.553-0.705,0.952-0.896
		c0.728-0.348,1.501-0.453,2.31-0.328c0.395,0.061,0.767,0.19,1.144,0.299c0.513,0.148,1.046,0.296,1.381,0.78
		c0.081,0.116,0.23,0.093,0.305,0.04C79.896,166.963,79.813,166.85,79.748,166.751"/>
	<path opacity="0.35" fill="#E7B949" d="M214.275,85.573c0.747-0.725,1.589-1.326,2.461-1.884c0.875-0.559,1.782-1.06,2.771-1.393
		c0.615-0.207,1.233-0.231,1.862-0.035c0.479,0.15,0.925,0.37,1.38,0.573c0.536,0.239,1.104,0.417,1.627,0.67
		c0.844,0.409,1.743,0.336,2.623,0.439c0.144,0.017,0.199-0.05,0.16-0.211c-0.167-0.696-0.201-1.401-0.136-2.115
		c0.018-0.196,0.041-0.379,0.131-0.556c0.146-0.283,0.254-0.298,0.495-0.095c0.411,0.346,0.596,0.794,0.638,1.312
		c0.015,0.175,0.095,0.232,0.254,0.208c0.658-0.102,1.317-0.192,1.964-0.357c0.064-0.016,0.112-0.035,0.116-0.117
		c0.01-0.201,0.078-0.415,0.032-0.601c-0.097-0.397,0.105-0.696,0.251-1.018c0.06-0.131,0.136-0.157,0.26-0.036
		c0.293,0.288,0.482,0.643,0.675,0.995c0.252,0.457,0.294,0.97,0.34,1.477c0.015,0.162,0.036,0.248,0.23,0.2
		c0.567-0.14,1.104-0.353,1.622-0.622c1.19-0.617,1.954-1.652,2.693-2.716c0.396-0.568,0.733-1.174,1.148-1.73
		c0.31-0.415,0.66-0.668,1.206-0.501c0.233,0.071,0.479,0.099,0.718,0.145c1.539,0.3,3.045,0.734,4.553,1.159
		c0.078,0.022,0.193,0.007,0.201,0.131c0.008,0.121-0.069,0.204-0.173,0.239c-0.175,0.059-0.354,0.101-0.533,0.146
		c-0.873,0.224-1.518,0.759-1.964,1.518c-0.266,0.45-0.273,0.957-0.16,1.473c0.079,0.356,0.133,0.384-0.274,0.373
		c-0.928-0.026-1.577,0.477-2.091,1.167c-0.349,0.466-0.332,1.015-0.155,1.557c0.03,0.093,0.072,0.19-0.012,0.271
		c-0.083,0.08-0.176,0.03-0.27,0.001c-0.321-0.098-0.633-0.139-0.975-0.029c-0.562,0.181-0.798,0.624-0.99,1.113
		c-0.136,0.343-0.169,0.698-0.037,1.052c0.037,0.1,0.096,0.202,0.003,0.292c-0.086,0.083-0.187,0.017-0.273-0.013
		c-0.536-0.181-1.081-0.198-1.627-0.071c-0.899,0.208-1.581,0.762-2.095,1.489c-0.524,0.744-0.865,1.594-1.174,2.45
		c-0.098,0.271-0.167,0.551-0.248,0.827c-0.031,0.104-0.096,0.156-0.206,0.175c-0.135,0.023-0.127-0.089-0.172-0.156
		c-0.312-0.465-0.557-0.97-0.895-1.42c-0.467-0.622-0.969-1.196-1.691-1.533c-0.339-0.158-0.667-0.329-1.064-0.305
		c-0.444,0.027-0.834,0.177-1.193,0.428c-0.187,0.131-0.268,0.099-0.373-0.093c-0.135-0.245-0.282-0.486-0.514-0.654
		c-0.738-0.536-1.898-0.485-2.583,0.113c-0.063,0.055-0.125,0.102-0.211,0.082c-0.096-0.023-0.101-0.105-0.111-0.187
		c-0.038-0.304-0.162-0.585-0.339-0.821c-0.458-0.608-1.117-0.85-1.85-0.91c-0.41-0.033-0.822-0.046-1.208,0.166
		c-0.136,0.075-0.259-0.004-0.217-0.174c0.05-0.204,0-0.382-0.074-0.563c-0.116-0.33-0.3-0.628-0.57-0.84
		c-0.493-0.387-1.062-0.598-1.695-0.64c-0.31-0.021-0.614,0.015-0.918,0.034c-0.414,0.025-0.844,0.047-1.179,0.357
		c-0.081,0.074-0.191,0.031-0.238-0.022C214.127,85.708,214.209,85.637,214.275,85.573"/>
	<path opacity="0.65" fill="#E7B949" d="M232.745,96.263c1.337-0.065,2.662,0.071,3.979,0.274c1.32,0.204,2.623,0.491,3.861,1.011
		c0.77,0.323,1.389,0.825,1.829,1.55c0.335,0.552,0.579,1.144,0.846,1.728c0.314,0.687,0.711,1.341,1.001,2.031
		c0.468,1.113,1.398,1.807,2.16,2.654c0.125,0.139,0.234,0.121,0.334-0.067c0.431-0.814,0.998-1.524,1.667-2.159
		c0.184-0.174,0.362-0.332,0.6-0.426c0.381-0.15,0.499-0.072,0.56,0.33c0.103,0.683-0.101,1.274-0.5,1.81
		c-0.135,0.182-0.106,0.305,0.069,0.417c0.722,0.461,1.436,0.935,2.201,1.326c0.075,0.039,0.138,0.061,0.211-0.014
		c0.181-0.186,0.428-0.334,0.542-0.553c0.244-0.466,0.694-0.583,1.108-0.77c0.169-0.076,0.265-0.037,0.281,0.187
		c0.039,0.527-0.081,1.031-0.193,1.535c-0.145,0.656-0.541,1.187-0.928,1.716c-0.124,0.168-0.176,0.271,0.053,0.389
		c0.667,0.347,1.367,0.597,2.095,0.779c1.675,0.417,3.293,0.065,4.912-0.333c0.866-0.212,1.707-0.511,2.581-0.694
		c0.652-0.137,1.206-0.084,1.591,0.542c0.165,0.267,0.379,0.502,0.57,0.751c1.232,1.599,2.318,3.299,3.414,4.992
		c0.057,0.087,0.181,0.171,0.083,0.297c-0.096,0.124-0.24,0.138-0.371,0.083c-0.219-0.091-0.428-0.204-0.64-0.312
		c-1.034-0.526-2.111-0.557-3.188-0.204c-0.64,0.209-1.079,0.693-1.407,1.287c-0.228,0.412-0.199,0.484-0.582,0.127
		c-0.874-0.814-1.929-0.881-3.013-0.652c-0.733,0.155-1.184,0.699-1.475,1.373c-0.05,0.116-0.092,0.246-0.242,0.252
		c-0.149,0.006-0.196-0.121-0.262-0.229c-0.227-0.368-0.494-0.673-0.917-0.856c-0.697-0.304-1.301-0.077-1.903,0.232
		c-0.422,0.216-0.756,0.53-0.929,0.985c-0.049,0.128-0.078,0.276-0.245,0.284c-0.154,0.008-0.194-0.142-0.253-0.244
		c-0.364-0.631-0.876-1.11-1.511-1.453c-1.047-0.563-2.176-0.609-3.291-0.343c-1.139,0.273-2.192,0.804-3.218,1.369
		c-0.324,0.178-0.63,0.39-0.943,0.588c-0.118,0.075-0.226,0.069-0.348-0.006c-0.15-0.093-0.047-0.194-0.034-0.296
		c0.094-0.714,0.287-1.411,0.343-2.133c0.077-0.998,0.082-1.979-0.33-2.92c-0.193-0.441-0.364-0.885-0.769-1.199
		c-0.453-0.351-0.956-0.538-1.517-0.602c-0.292-0.033-0.343-0.132-0.281-0.407c0.078-0.351,0.141-0.709,0.06-1.07
		c-0.258-1.145-1.421-2.082-2.592-2.087c-0.108-0.001-0.208-0.008-0.273-0.101c-0.072-0.104-0.008-0.188,0.052-0.276
		c0.223-0.326,0.341-0.703,0.371-1.082c0.075-0.977-0.356-1.771-1.014-2.452c-0.368-0.381-0.755-0.744-1.309-0.868
		c-0.194-0.043-0.247-0.225-0.062-0.353c0.222-0.154,0.325-0.369,0.407-0.606c0.168-0.418,0.245-0.861,0.164-1.297
		c-0.147-0.793-0.517-1.48-1.094-2.06c-0.281-0.283-0.605-0.508-0.915-0.749c-0.422-0.328-0.855-0.672-1.444-0.658
		c-0.141,0.003-0.211-0.132-0.211-0.224C232.487,96.267,232.627,96.268,232.745,96.263"/>
</g>
<g>
	<path opacity="0.35" fill="#E7B949" d="M156.027,27.032c0.625-0.607,1.33-1.109,2.061-1.577c0.732-0.468,1.492-0.887,2.319-1.166
		c0.514-0.173,1.032-0.194,1.559-0.029c0.401,0.125,0.774,0.31,1.155,0.479c0.449,0.201,0.924,0.349,1.362,0.562
		c0.707,0.342,1.459,0.281,2.195,0.367c0.121,0.014,0.167-0.042,0.134-0.177c-0.139-0.583-0.168-1.173-0.114-1.77
		c0.014-0.164,0.034-0.317,0.109-0.465c0.122-0.237,0.213-0.25,0.415-0.08c0.344,0.289,0.499,0.665,0.534,1.098
		c0.012,0.147,0.079,0.194,0.213,0.173c0.55-0.084,1.103-0.161,1.644-0.298c0.054-0.013,0.094-0.03,0.097-0.098
		c0.009-0.168,0.065-0.347,0.027-0.503c-0.082-0.332,0.088-0.583,0.21-0.852c0.049-0.11,0.113-0.132,0.217-0.03
		c0.246,0.241,0.404,0.538,0.565,0.833c0.211,0.383,0.246,0.812,0.285,1.236c0.012,0.135,0.03,0.208,0.193,0.167
		c0.475-0.118,0.924-0.296,1.357-0.521c0.997-0.516,1.636-1.383,2.255-2.273c0.331-0.476,0.613-0.983,0.961-1.449
		c0.259-0.347,0.552-0.559,1.009-0.419c0.196,0.06,0.401,0.083,0.601,0.122c1.289,0.251,2.55,0.614,3.812,0.97
		c0.066,0.019,0.162,0.006,0.168,0.11c0.006,0.102-0.059,0.17-0.146,0.2c-0.146,0.049-0.297,0.084-0.446,0.123
		c-0.73,0.188-1.27,0.635-1.644,1.271c-0.222,0.377-0.229,0.801-0.134,1.233c0.065,0.298,0.111,0.322-0.229,0.312
		c-0.777-0.022-1.32,0.398-1.751,0.976c-0.292,0.391-0.277,0.85-0.13,1.304c0.025,0.078,0.061,0.16-0.01,0.227
		c-0.07,0.067-0.147,0.025-0.226,0.001c-0.269-0.083-0.53-0.116-0.816-0.024c-0.471,0.151-0.668,0.521-0.829,0.931
		c-0.113,0.288-0.141,0.584-0.03,0.88c0.031,0.084,0.081,0.169,0.002,0.244c-0.072,0.07-0.156,0.015-0.229-0.01
		c-0.449-0.152-0.905-0.166-1.362-0.06c-0.753,0.175-1.324,0.638-1.753,1.247c-0.439,0.623-0.724,1.334-0.983,2.051
		c-0.082,0.226-0.14,0.461-0.208,0.692c-0.026,0.087-0.081,0.131-0.172,0.146c-0.113,0.02-0.106-0.075-0.144-0.13
		c-0.261-0.389-0.466-0.812-0.75-1.188c-0.391-0.52-0.811-1.001-1.416-1.283c-0.284-0.132-0.558-0.276-0.891-0.255
		c-0.372,0.023-0.698,0.148-0.999,0.358c-0.157,0.109-0.224,0.083-0.313-0.078c-0.113-0.205-0.236-0.407-0.431-0.548
		c-0.618-0.448-1.588-0.405-2.163,0.095c-0.053,0.046-0.105,0.085-0.176,0.068c-0.08-0.02-0.084-0.088-0.093-0.157
		c-0.032-0.254-0.135-0.49-0.284-0.688c-0.383-0.509-0.935-0.711-1.548-0.761c-0.344-0.028-0.688-0.039-1.012,0.139
		c-0.114,0.063-0.217-0.003-0.182-0.146c0.042-0.17,0-0.319-0.062-0.471c-0.097-0.276-0.251-0.526-0.477-0.704
		c-0.413-0.324-0.889-0.5-1.419-0.536c-0.259-0.017-0.514,0.012-0.769,0.028c-0.347,0.021-0.706,0.04-0.987,0.299
		c-0.067,0.062-0.159,0.026-0.199-0.019C155.903,27.146,155.972,27.085,156.027,27.032"/>
	<path opacity="0.65" fill="#E7B949" d="M164.792,0.823c1.12-0.055,2.229,0.059,3.331,0.229c1.105,0.171,2.196,0.412,3.232,0.847
		c0.645,0.271,1.163,0.69,1.531,1.297c0.281,0.462,0.484,0.958,0.708,1.446c0.263,0.575,0.595,1.123,0.838,1.7
		c0.392,0.932,1.17,1.512,1.808,2.222c0.104,0.116,0.196,0.101,0.28-0.057c0.361-0.682,0.836-1.276,1.396-1.807
		c0.154-0.146,0.303-0.278,0.502-0.356c0.319-0.126,0.417-0.061,0.468,0.275c0.086,0.572-0.084,1.066-0.418,1.515
		c-0.113,0.152-0.088,0.255,0.058,0.349c0.604,0.386,1.202,0.783,1.842,1.11c0.063,0.032,0.116,0.051,0.177-0.012
		c0.151-0.156,0.358-0.28,0.454-0.463c0.204-0.39,0.581-0.488,0.928-0.644c0.141-0.064,0.222-0.031,0.235,0.156
		c0.032,0.441-0.067,0.863-0.162,1.285c-0.122,0.549-0.453,0.993-0.777,1.436c-0.103,0.141-0.147,0.227,0.044,0.326
		c0.559,0.29,1.144,0.5,1.754,0.652c1.402,0.349,2.756,0.055,4.111-0.278c0.725-0.178,1.429-0.428,2.161-0.582
		c0.546-0.115,1.009-0.07,1.332,0.454c0.138,0.224,0.317,0.42,0.478,0.628c1.031,1.339,1.94,2.762,2.857,4.179
		c0.048,0.073,0.151,0.144,0.069,0.249c-0.08,0.104-0.201,0.115-0.311,0.07c-0.183-0.076-0.358-0.17-0.535-0.261
		c-0.865-0.44-1.767-0.466-2.668-0.17c-0.535,0.175-0.903,0.58-1.178,1.077c-0.19,0.344-0.167,0.405-0.487,0.106
		c-0.732-0.682-1.615-0.737-2.522-0.546c-0.614,0.129-0.991,0.585-1.234,1.149c-0.042,0.097-0.077,0.206-0.203,0.211
		c-0.125,0.005-0.164-0.101-0.22-0.191c-0.189-0.308-0.414-0.563-0.768-0.717c-0.583-0.254-1.089-0.064-1.593,0.195
		c-0.354,0.181-0.633,0.444-0.778,0.825c-0.041,0.107-0.066,0.231-0.206,0.238c-0.129,0.007-0.163-0.119-0.212-0.205
		c-0.305-0.528-0.733-0.929-1.265-1.216c-0.876-0.472-1.821-0.51-2.754-0.287c-0.954,0.229-1.834,0.673-2.694,1.146
		c-0.271,0.149-0.527,0.326-0.79,0.492c-0.099,0.063-0.189,0.058-0.291-0.005c-0.126-0.078-0.039-0.163-0.028-0.248
		c0.079-0.598,0.24-1.181,0.287-1.786c0.064-0.835,0.068-1.657-0.276-2.444c-0.162-0.369-0.305-0.741-0.644-1.004
		c-0.379-0.294-0.8-0.451-1.27-0.503c-0.245-0.027-0.287-0.111-0.235-0.341c0.065-0.294,0.118-0.594,0.05-0.896
		c-0.216-0.958-1.19-1.743-2.17-1.748c-0.09,0-0.174-0.007-0.229-0.084c-0.061-0.087-0.006-0.157,0.043-0.23
		c0.186-0.273,0.286-0.588,0.311-0.906c0.063-0.817-0.298-1.482-0.849-2.052c-0.308-0.319-0.632-0.623-1.095-0.726
		c-0.163-0.037-0.207-0.188-0.052-0.295c0.186-0.129,0.272-0.308,0.34-0.507c0.141-0.35,0.205-0.721,0.138-1.085
		c-0.123-0.664-0.433-1.239-0.916-1.725c-0.235-0.237-0.507-0.425-0.766-0.626c-0.353-0.275-0.716-0.563-1.208-0.551
		c-0.118,0.002-0.177-0.11-0.177-0.187C164.575,0.827,164.693,0.827,164.792,0.823"/>
</g>
<g>
	<path opacity="0.35" fill="#CC3A00" d="M216.027,27.032c0.625-0.607,1.33-1.109,2.061-1.577c0.732-0.468,1.492-0.887,2.319-1.166
		c0.514-0.173,1.032-0.194,1.559-0.029c0.401,0.125,0.774,0.31,1.155,0.479c0.449,0.201,0.924,0.349,1.362,0.562
		c0.707,0.342,1.459,0.281,2.195,0.367c0.121,0.014,0.167-0.042,0.134-0.177c-0.139-0.583-0.168-1.173-0.114-1.77
		c0.014-0.164,0.034-0.317,0.109-0.465c0.122-0.237,0.213-0.25,0.415-0.08c0.344,0.289,0.499,0.665,0.534,1.098
		c0.012,0.147,0.079,0.194,0.213,0.173c0.55-0.084,1.103-0.161,1.644-0.298c0.054-0.013,0.094-0.03,0.097-0.098
		c0.009-0.168,0.065-0.347,0.027-0.503c-0.082-0.332,0.088-0.583,0.21-0.852c0.049-0.11,0.113-0.132,0.217-0.03
		c0.246,0.241,0.404,0.538,0.565,0.833c0.211,0.383,0.246,0.812,0.285,1.236c0.012,0.135,0.03,0.208,0.193,0.167
		c0.475-0.118,0.924-0.296,1.357-0.521c0.997-0.516,1.636-1.383,2.255-2.273c0.331-0.476,0.613-0.983,0.961-1.449
		c0.259-0.347,0.552-0.559,1.009-0.419c0.196,0.06,0.401,0.083,0.601,0.122c1.289,0.251,2.55,0.614,3.812,0.97
		c0.066,0.019,0.162,0.006,0.168,0.11c0.006,0.102-0.059,0.17-0.146,0.2c-0.146,0.049-0.297,0.084-0.446,0.123
		c-0.73,0.188-1.27,0.635-1.644,1.271c-0.222,0.377-0.229,0.801-0.134,1.233c0.065,0.298,0.111,0.322-0.229,0.312
		c-0.777-0.022-1.32,0.398-1.751,0.976c-0.292,0.391-0.277,0.85-0.13,1.304c0.025,0.078,0.061,0.16-0.01,0.227
		c-0.07,0.067-0.147,0.025-0.226,0.001c-0.269-0.083-0.53-0.116-0.816-0.024c-0.471,0.151-0.668,0.521-0.829,0.931
		c-0.113,0.288-0.141,0.584-0.03,0.88c0.031,0.084,0.081,0.169,0.002,0.244c-0.072,0.07-0.156,0.015-0.229-0.01
		c-0.449-0.152-0.905-0.166-1.362-0.06c-0.753,0.175-1.324,0.638-1.753,1.247c-0.439,0.623-0.724,1.334-0.983,2.051
		c-0.082,0.226-0.14,0.461-0.208,0.692c-0.026,0.087-0.081,0.131-0.172,0.146c-0.113,0.02-0.106-0.075-0.144-0.13
		c-0.261-0.389-0.466-0.812-0.75-1.188c-0.391-0.52-0.811-1.001-1.416-1.283c-0.284-0.132-0.558-0.276-0.891-0.255
		c-0.372,0.023-0.698,0.148-0.999,0.358c-0.157,0.109-0.224,0.083-0.313-0.078c-0.113-0.205-0.236-0.407-0.431-0.548
		c-0.618-0.448-1.588-0.405-2.163,0.095c-0.053,0.046-0.105,0.085-0.176,0.068c-0.08-0.02-0.084-0.088-0.093-0.157
		c-0.032-0.254-0.135-0.49-0.284-0.688c-0.383-0.509-0.935-0.711-1.548-0.761c-0.344-0.028-0.688-0.039-1.012,0.139
		c-0.114,0.063-0.217-0.003-0.182-0.146c0.042-0.17,0-0.319-0.062-0.471c-0.097-0.276-0.251-0.526-0.477-0.704
		c-0.413-0.324-0.889-0.5-1.419-0.536c-0.259-0.017-0.514,0.012-0.769,0.028c-0.347,0.021-0.706,0.04-0.987,0.299
		c-0.067,0.062-0.159,0.026-0.199-0.019C215.903,27.146,215.972,27.085,216.027,27.032"/>
	<path opacity="0.65" fill="#CC3A00" d="M224.792,0.823c1.12-0.055,2.229,0.059,3.331,0.229c1.105,0.171,2.196,0.412,3.232,0.847
		c0.645,0.271,1.163,0.69,1.531,1.297c0.281,0.462,0.484,0.958,0.708,1.446c0.263,0.575,0.595,1.123,0.838,1.7
		c0.392,0.932,1.17,1.512,1.808,2.222c0.104,0.116,0.196,0.101,0.28-0.057c0.361-0.682,0.836-1.276,1.396-1.807
		c0.154-0.146,0.303-0.278,0.502-0.356c0.319-0.126,0.417-0.061,0.468,0.275c0.086,0.572-0.084,1.066-0.418,1.515
		c-0.113,0.152-0.088,0.255,0.058,0.349c0.604,0.386,1.202,0.783,1.842,1.11c0.063,0.032,0.116,0.051,0.177-0.012
		c0.151-0.156,0.358-0.28,0.454-0.463c0.204-0.39,0.581-0.488,0.928-0.644c0.141-0.064,0.222-0.031,0.235,0.156
		c0.032,0.441-0.067,0.863-0.162,1.285c-0.122,0.549-0.453,0.993-0.777,1.436c-0.103,0.141-0.147,0.227,0.044,0.326
		c0.559,0.29,1.144,0.5,1.754,0.652c1.402,0.349,2.756,0.055,4.111-0.278c0.725-0.178,1.429-0.428,2.161-0.582
		c0.546-0.115,1.009-0.07,1.332,0.454c0.138,0.224,0.317,0.42,0.478,0.628c1.031,1.339,1.94,2.762,2.857,4.179
		c0.048,0.073,0.151,0.144,0.069,0.249c-0.08,0.104-0.201,0.115-0.311,0.07c-0.183-0.076-0.358-0.17-0.535-0.261
		c-0.865-0.44-1.767-0.466-2.668-0.17c-0.535,0.175-0.903,0.58-1.178,1.077c-0.19,0.344-0.167,0.405-0.487,0.106
		c-0.732-0.682-1.615-0.737-2.522-0.546c-0.614,0.129-0.991,0.585-1.234,1.149c-0.042,0.097-0.077,0.206-0.203,0.211
		c-0.125,0.005-0.164-0.101-0.22-0.191c-0.189-0.308-0.414-0.563-0.768-0.717c-0.583-0.254-1.089-0.064-1.593,0.195
		c-0.354,0.181-0.633,0.444-0.778,0.825c-0.041,0.107-0.066,0.231-0.206,0.238c-0.129,0.007-0.163-0.119-0.212-0.205
		c-0.305-0.528-0.733-0.929-1.265-1.216c-0.876-0.472-1.821-0.51-2.754-0.287c-0.954,0.229-1.834,0.673-2.694,1.146
		c-0.271,0.149-0.527,0.326-0.79,0.492c-0.099,0.063-0.189,0.058-0.291-0.005c-0.126-0.078-0.039-0.163-0.028-0.248
		c0.079-0.598,0.24-1.181,0.287-1.786c0.064-0.835,0.068-1.657-0.276-2.444c-0.162-0.369-0.305-0.741-0.644-1.004
		c-0.379-0.294-0.8-0.451-1.27-0.503c-0.245-0.027-0.287-0.111-0.235-0.341c0.065-0.294,0.118-0.594,0.05-0.896
		c-0.216-0.958-1.19-1.743-2.17-1.748c-0.09,0-0.174-0.007-0.229-0.084c-0.061-0.087-0.006-0.157,0.043-0.23
		c0.186-0.273,0.286-0.588,0.311-0.906c0.063-0.817-0.298-1.482-0.849-2.052c-0.308-0.319-0.632-0.623-1.095-0.726
		c-0.163-0.037-0.207-0.188-0.052-0.295c0.186-0.129,0.272-0.308,0.34-0.507c0.141-0.35,0.205-0.721,0.138-1.085
		c-0.123-0.664-0.433-1.239-0.916-1.725c-0.235-0.237-0.507-0.425-0.766-0.626c-0.353-0.275-0.716-0.563-1.208-0.551
		c-0.118,0.002-0.177-0.11-0.177-0.187C224.575,0.827,224.693,0.827,224.792,0.823"/>
</g>
</svg>
